<svg xmlns="http://www.w3.org/2000/svg" xmlns:xlink="http://www.w3.org/1999/xlink"><symbol id="icon-arrow-left" viewBox="0 0 21 36">
<path fill-rule="evenodd" clip-rule="evenodd" d="M7.27747 18.1085L20.7919 32.2046L17.1532 36L1.56412e-06 18.1085L17.3613 -3.18108e-07L21 3.79535L7.27747 18.1085Z"/>
</symbol><symbol id="icon-close" viewBox="0 0 18 18">
    <polygon points="18,1.3 16.7,0 9,7.7 1.3,0 0,1.3 7.7,9 0,16.7 1.3,18 9,10.3 16.7,18 18,16.7 10.3,9 "/>
</symbol><symbol id="icon-logo" viewBox="0 0 15 25">
<path d="M12.5989 0C12.5989 0 10.9714 1.99559 9.21134 2.80015C-3.82263 8.75867 1.67435 20.3702 1.85368 20.4084C1.85368 20.4084 2.58456 18.7998 3.57187 17.8822C9.83693 12.0611 11.1103 5.36067 11.1103 5.36067C11.1103 5.36067 9.70441 13.4234 4.1307 18.4403C2.89968 19.5477 2.06612 22.2746 1.71327 25C1.71327 25 2.58589 24.5544 2.96113 24.4337C3.10745 23.2268 3.41338 22.0712 3.9306 21.0389C11.7205 22.2111 14.2719 14.2777 14.6052 11.5113C15.3918 4.97786 12.5989 0 12.5989 0Z" fill="white"/>
</symbol><symbol id="icon-main-plus" viewBox="0 0 30 30">
<path d="M15 30C23.2843 30 30 23.2843 30 15C30 6.71573 23.2843 0 15 0C6.71573 0 0 6.71573 0 15C0 23.2843 6.71573 30 15 30Z" fill="#73B055"/>
<path d="M15 7.8V22.8" stroke="white" stroke-width="2" stroke-miterlimit="10" stroke-linecap="round" stroke-linejoin="round"/>
<path d="M22.5 15H7.5" stroke="white" stroke-width="2" stroke-miterlimit="10" stroke-linecap="round" stroke-linejoin="round"/>
</symbol></svg>