<svg width="34" height="22" xmlns="http://www.w3.org/2000/svg"><path d="M16.656 21.37h1.912c.322-.042.624-.194.87-.436.174-.28.265-.616.26-.96 0 0-.038-2.927 1.15-3.366 1.188-.439 2.67 2.836 4.262 4.09.602.544 1.36.806 2.124.731l4.25-.068s2.226-.158 1.17-2.168a15.872 15.872 0 0 0-3.164-4.202c-2.668-2.843-2.311-2.382.904-7.3 1.958-2.996 2.74-4.825 2.496-5.61-.245-.785-1.674-.549-1.674-.549l-4.791.035a.965.965 0 0 0-.618.124 1.523 1.523 0 0 0-.425.593 34.17 34.17 0 0 1-1.77 4.287c-2.135 4.16-2.987 4.39-3.338 4.121-.81-.602-.607-2.42-.607-3.71 0-4.03.533-5.71-1.037-6.145a7.24 7.24 0 0 0-2.237-.243 9.066 9.066 0 0 0-3.975.468c-.546.305-.967.975-.71 1.026.545.056 1.05.349 1.413.817.334.773.498 1.628.478 2.49 0 0 .283 4.744-.659 5.334-.637.404-1.531-.422-3.433-4.195a37.346 37.346 0 0 1-1.7-4.068 1.653 1.653 0 0 0-.395-.614 1.862 1.862 0 0 0-.737-.341l-4.572.034s-.684.022-.935.363c-.223.305-.017.932-.017.932 1.927 5.185 4.486 10.029 7.6 14.388 2.023 2.575 4.884 4.076 7.905 4.145v-.002z" fill="#F1F8ED"/><path d="M26.969 21.998a4.211 4.211 0 0 1-2.439-.91 12.205 12.205 0 0 1-2.035-2.136 6.936 6.936 0 0 0-1.473-1.532 7.202 7.202 0 0 0-.267 1.951 2.779 2.779 0 0 1-.572 1.778c-.42.433-.95.7-1.512.76h-1.989c-3.259-.037-6.374-1.547-8.67-4.2C4.816 13.572 2.178 8.912.185 3.88A2.344 2.344 0 0 1 .38 1.686C.844 1.201 1.453.94 2.08.955L6.654.923c.478.053.938.235 1.343.531.336.28.601.657.769 1.093a32.895 32.895 0 0 0 1.64 3.658 15.94 15.94 0 0 0 2.082 3.263c.104-1.203.12-2.413.049-3.62a4.354 4.354 0 0 0-.255-1.653 1.158 1.158 0 0 0-.71-.307l-.796-.114-.198-.976c-.131-.995.759-1.848 1.392-2.195A10.081 10.081 0 0 1 16.4.05a8.552 8.552 0 0 1 2.458.268c2.075.539 1.999 2.57 1.912 4.721a56.243 56.243 0 0 0-.051 2.215v.65c-.02.451-.014.902.017 1.352a16.858 16.858 0 0 0 1.977-3.039 29.337 29.337 0 0 0 1.681-3.814c.191-.479.5-.882.89-1.16A1.93 1.93 0 0 1 26.56.978l4.65-.042c.425-.053 2.18-.168 2.671 1.295.357 1.073.04 2.58-2.66 6.443-.41.59-.777 1.098-1.096 1.54a11.051 11.051 0 0 0-1.353 2.108c.417.508.864.982 1.338 1.42a18.428 18.428 0 0 1 3.433 4.255c.492.708.595 1.674.266 2.497-.508.869-1.354 1.396-2.265 1.412l-4.304.069a.88.88 0 0 1-.27.022zm-5.902-7.012c1.107 0 2.057 1.169 2.974 2.308.485.65 1.032 1.236 1.63 1.748.4.34.885.521 1.383.515l4.404-.08c.11-.014.22-.04.325-.081l-.034-.064a16.323 16.323 0 0 0-2.974-3.658c-2.887-2.877-2.688-3.69-.304-6.999.312-.436.671-.934 1.075-1.512a17.303 17.303 0 0 0 2.212-3.79 2.709 2.709 0 0 0-.447 0l-4.899.04c-.095 0-.87 2.194-1.912 4.109-1.56 2.84-3.223 5.319-4.78 4.248-1.213-.841-1.168-2.626-1.134-3.931v-.58c0-.888.03-1.656.053-2.32a8.45 8.45 0 0 0-.056-2.158.813.813 0 0 0-.212-.08 6.78 6.78 0 0 0-1.993-.213c-.837-.024-1.674 0-2.509.074.03.036.057.074.083.114a6.2 6.2 0 0 1 .71 3.1c.212 3.375-.213 5.45-1.245 6.06-1.73 1.02-3.217-1.378-4.823-4.368A35.139 35.139 0 0 1 6.8 3.498a.628.628 0 0 0-.325-.163l-4.137.046c1.834 4.573 4.245 8.81 7.154 12.579 1.879 2.189 4.427 3.451 7.104 3.518h1.963c-.025 0 .106-.048.15-.08-.088-.597-.035-3.685 1.828-4.319.171-.06.35-.092.529-.093z"/></svg>