<svg width="19" height="30" xmlns="http://www.w3.org/2000/svg"><path d="M11.736 30h-5.36c-.896 0-1.625-.653-1.625-1.455V17.709H1.624C.728 17.709 0 17.056 0 16.253V11.61c0-.802.728-1.455 1.624-1.455H4.75V7.83c0-2.306.808-4.267 2.336-5.673C8.622.746 10.767 0 13.291 0l4.088.006C18.273.007 19 .66 19 1.461v4.311c0 .803-.728 1.456-1.623 1.456h-2.753c-.84 0-1.053.151-1.099.198-.075.076-.165.293-.165.892v1.837h3.81c.287 0 .564.063.803.182.515.258.836.746.836 1.273l-.002 4.644c0 .802-.729 1.454-1.624 1.454H13.36v10.837c0 .802-.729 1.455-1.624 1.455zm-5.022-1.759h4.683v-11.32c0-.536.487-.971 1.085-.971h4.362l.002-4.036h-4.365c-.597 0-1.084-.436-1.084-.972V8.318c0-.688.078-1.469.657-2.056.7-.71 1.801-.792 2.57-.792l2.414-.001V1.764l-3.749-.005c-4.055 0-6.575 2.326-6.575 6.07v3.113c0 .535-.486.972-1.084.972H1.962v4.036H5.63c.598 0 1.084.435 1.084.971v11.32zM17.375 1.765z"/></svg>